<svg width="32" height="32" viewBox="0 0 32 32" fill="none" xmlns="http://www.w3.org/2000/svg">
<path d="M28 13.3332H4M28 16.6665V11.7332C28 9.49296 28 8.37286 27.564 7.51721C27.1805 6.76456 26.5686 6.15264 25.816 5.76914C24.9603 5.33317 23.8402 5.33317 21.6 5.33317H10.4C8.15979 5.33317 7.03969 5.33317 6.18404 5.76914C5.43139 6.15264 4.81947 6.76456 4.43597 7.51721C4 8.37286 4 9.49296 4 11.7332V22.9332C4 25.1734 4 26.2935 4.43597 27.1491C4.81947 27.9018 5.43139 28.5137 6.18404 28.8972C7.03969 29.3332 8.15979 29.3332 10.4 29.3332H16M21.3333 2.6665V7.99984M10.6667 2.6665V7.99984M19.3333 25.3332L22 27.9998L28 21.9998" stroke="#FFD147" stroke-width="3" stroke-linecap="round" stroke-linejoin="round"/>
</svg>
