<svg width="32" height="32" viewBox="0 0 32 32" fill="none" xmlns="http://www.w3.org/2000/svg">
<path d="M15.9995 11.9998V17.3332M15.9995 22.6665H16.0128M14.1533 5.18878L3.18675 24.1309C2.57848 25.1816 2.27434 25.7069 2.31929 26.1381C2.3585 26.5141 2.55553 26.8559 2.86134 27.0782C3.21195 27.3332 3.81897 27.3332 5.033 27.3332H26.966C28.1801 27.3332 28.7871 27.3332 29.1377 27.0782C29.4435 26.8559 29.6405 26.5141 29.6797 26.1381C29.7247 25.7069 29.4205 25.1816 28.8123 24.1309L17.8458 5.18878C17.2397 4.1419 16.9366 3.61845 16.5412 3.44265C16.1964 3.2893 15.8027 3.2893 15.4578 3.44265C15.0624 3.61845 14.7594 4.1419 14.1533 5.18878Z" stroke="#FF4F4E" stroke-width="3" stroke-linecap="round" stroke-linejoin="round"/>
</svg>
