<svg width="24" height="24" viewBox="0 0 24 24" fill="none" xmlns="http://www.w3.org/2000/svg">
<path fill-rule="evenodd" clip-rule="evenodd" d="M6.42072 4.82977C6.20746 4.63105 5.92539 4.52286 5.63393 4.52801C5.34248 4.53315 5.06441 4.65122 4.85829 4.85734C4.65217 5.06346 4.5341 5.34153 4.52896 5.63299C4.52381 5.92444 4.632 6.20651 4.83072 6.41977L10.4107 11.9998L4.83072 17.5798C4.72019 17.6828 4.63154 17.807 4.57005 17.945C4.50856 18.083 4.4755 18.2319 4.47283 18.383C4.47017 18.534 4.49795 18.6841 4.55453 18.8242C4.61112 18.9642 4.69533 19.0915 4.80216 19.1983C4.90899 19.3052 5.03624 19.3894 5.17632 19.446C5.3164 19.5025 5.46645 19.5303 5.6175 19.5277C5.76856 19.525 5.91753 19.4919 6.05553 19.4304C6.19352 19.369 6.31773 19.2803 6.42072 19.1698L12.0007 13.5898L17.5807 19.1698C17.6837 19.2803 17.8079 19.369 17.9459 19.4304C18.0839 19.4919 18.2329 19.525 18.3839 19.5277C18.535 19.5303 18.685 19.5025 18.8251 19.446C18.9652 19.3894 19.0924 19.3052 19.1993 19.1983C19.3061 19.0915 19.3903 18.9642 19.4469 18.8242C19.5035 18.6841 19.5313 18.534 19.5286 18.383C19.5259 18.2319 19.4929 18.083 19.4314 17.945C19.3699 17.807 19.2812 17.6828 19.1707 17.5798L13.5907 11.9998L19.1707 6.41977C19.3694 6.20651 19.4776 5.92444 19.4725 5.63299C19.4673 5.34153 19.3493 5.06346 19.1432 4.85734C18.937 4.65122 18.659 4.53315 18.3675 4.52801C18.0761 4.52286 17.794 4.63105 17.5807 4.82977L12.0007 10.4098L6.42072 4.82977Z" fill="white"/>
</svg>
