<svg width="24" height="24" viewBox="0 0 24 24" fill="none" xmlns="http://www.w3.org/2000/svg">
<path d="M4 6L10 12M20 6L14 12M10 12L10.5858 12.5858C11.3668 13.3668 12.6332 13.3668 13.4142 12.5858L14 12M10 12L3.87868 18.1213M14 12L20.1213 18.1213M20.1213 18.1213C20.6642 17.5784 21 16.8284 21 16V7C21 5.89543 20.1046 5 19 5H5C3.89543 5 3 5.89543 3 7V16C3 16.8284 3.33579 17.5784 3.87868 18.1213M20.1213 18.1213C19.5784 18.6642 18.8284 19 18 19H6C5.17157 19 4.42157 18.6642 3.87868 18.1213" stroke="#CDE9DF" stroke-width="1.5" stroke-linecap="round"/>
</svg>
