<svg width="32" height="32" viewBox="0 0 32 32" fill="none" xmlns="http://www.w3.org/2000/svg">
<path d="M16.0002 15.9998L10.303 11.2522C9.45651 10.5468 9.03328 10.1941 8.72901 9.76175C8.45942 9.37868 8.25921 8.95122 8.13752 8.49888C8.00016 7.98835 8.00016 7.43743 8.00016 6.33557V2.6665M16.0002 15.9998L21.6973 11.2522C22.5438 10.5468 22.967 10.1941 23.2713 9.76175C23.5409 9.37868 23.7411 8.95122 23.8628 8.49888C24.0002 7.98835 24.0002 7.43743 24.0002 6.33557V2.6665M16.0002 15.9998L10.303 20.7475C9.45651 21.4529 9.03328 21.8056 8.72901 22.2379C8.45942 22.621 8.25921 23.0484 8.13752 23.5008C8.00016 24.0113 8.00016 24.5622 8.00016 25.6641V29.3332M16.0002 15.9998L21.6973 20.7475C22.5438 21.4529 22.967 21.8056 23.2713 22.2379C23.5409 22.621 23.7411 23.0484 23.8628 23.5008C24.0002 24.0113 24.0002 24.5622 24.0002 25.6641V29.3332M5.3335 2.6665H26.6668M5.3335 29.3332H26.6668" stroke="#79B5EC" stroke-width="2" stroke-linecap="round" stroke-linejoin="round"/>
</svg>
